# xmcd CD database file
#
# Track frame offsets:
#	150
#	12228
#	22693
#	30723
#	41603
#	51488
#	60500
#	67898
#	78790
#	88898
#	98305
#	107443
#	116758
#	125995
#	134285
#	146078
#	153688
#	162110
#	170290
#	182555
#	194195
#	206785
#	218298
#	230478
#	242280
#	253828
#	265985
#
# Disc length: 3672 seconds
#
# Revision: 1
# Processed by: cddbd v1.5.2PL0 Copyright (c) Steve Scherf et al.
# Submitted via: CDex 1.70beta2
#
DISCID=720e561b
DTITLE=Gene Autry - Sing Cowboy Sing (The Gene Autry Collection) - Disc 1
DYEAR=1997
DGENRE=Country
TTITLE0=Back In The Saddle Again
TTITLE1=Dust
TTITLE2=Sing Me A Song Of The Saddle
TTITLE3=Tumbling Tumbleweeds
TTITLE4=The One Rose
TTITLE5=That Silver-Haired Daddy Of Mine
TTITLE6=Rhythm Of The Range
TTITLE7=Blueberry Hill
TTITLE8=El Rancho Grande
TTITLE9=Mellow Mountain Moon
TTITLE10=We Never Dream The Same Dream Twice
TTITLE11=When You And I Were Young Maggie
TTITLE12=Maria Elena
TTITLE13=Be Honest With Me
TTITLE14=Tears On My Pillow
TTITLE15=The Yellow Rose Of Texas
TTITLE16=Lonely River
TTITLE17=Tweedle-O-Twill
TTITLE18=At Mail Call Today
TTITLE19=Don't Live A Lie
TTITLE20=Don't Hang Around Me Anymore
TTITLE21=I'll Be Back
TTITLE22=Silver Spurs (On The Golden Stairs
TTITLE23=I Wish I Had Never Met Sunshine
TTITLE24=You Only Want Me When You're Lonely
TTITLE25=You're Not My Darlin' Anymore
TTITLE26=Oklahoma Hills
EXTD=YEAR: 1997
EXTT0=
EXTT1=
EXTT2=
EXTT3=
EXTT4=
EXTT5=
EXTT6=
EXTT7=
EXTT8=
EXTT9=
EXTT10=
EXTT11=
EXTT12=
EXTT13=
EXTT14=
EXTT15=
EXTT16=
EXTT17=
EXTT18=
EXTT19=
EXTT20=
EXTT21=
EXTT22=
EXTT23=
EXTT24=
EXTT25=
EXTT26=
PLAYORDER=
